<svg width="180" height="102" viewBox="0 0 180 102" fill="none" xmlns="http://www.w3.org/2000/svg">
<path d="M0 86.8904V86.8065C0 78.9094 5.74895 72.3629 13.7485 72.3629C15.7189 72.3013 17.6802 72.6631 19.5066 73.4251C21.3331 74.1872 22.9845 75.3327 24.355 76.7883L22.253 79.0773C19.9653 76.8417 17.4028 75.2623 13.7113 75.2623C7.68755 75.2623 3.18643 80.2904 3.18643 86.7073V86.7836C3.18643 93.2462 7.73211 98.3125 13.7113 98.3125C17.4251 98.3125 19.8836 96.8399 22.4907 94.2838L24.511 96.3439C21.6737 99.2968 18.569 101.25 13.6296 101.25C5.78609 101.25 0 94.9095 0 86.8904Z" fill="#6D6E70"/>
<path d="M31.3613 72.8436H43.0821C46.417 72.8436 49.0984 73.8812 50.8067 75.6361C51.4922 76.3659 52.0308 77.2275 52.3915 78.1715C52.7522 79.1156 52.928 80.1234 52.9087 81.1374V81.2213C52.9087 85.8451 49.7966 88.5614 45.5257 89.3625L53.8743 100.769H50.0788L42.1982 89.9195H34.4289V100.769H31.3613V72.8436ZM42.7775 87.0888C46.8553 87.0888 49.7669 84.9295 49.7669 81.3434V81.2595C49.7669 77.826 47.2044 75.7582 42.8147 75.7582H34.4289V87.0888H42.7775Z" fill="#6D6E70"/>
<path d="M61.6504 72.8436H81.3038V75.7124H64.7403V85.2499H79.5954V88.1264H64.7403V97.9005H81.5192V100.769H61.6504V72.8436Z" fill="#6D6E70"/>
<path d="M88.4395 72.8435H97.8725C106.422 72.8435 112.327 78.8636 112.327 86.7301V86.8064C112.327 94.6653 106.422 100.769 97.8725 100.769H88.4395V72.8435ZM91.507 75.7582V97.8851H97.8725C104.75 97.8851 109.14 93.1011 109.14 86.9208V86.8369C109.14 80.6566 104.75 75.7887 97.8725 75.7887L91.507 75.7582Z" fill="#6D6E70"/>
<path d="M121.314 72.8436H124.382V100.769H121.314V72.8436Z" fill="#6D6E70"/>
<path d="M133.83 72.8435H153.365V75.7582H136.898V85.7306H151.619V88.5994H136.898V100.769H133.83V72.8435Z" fill="#6D6E70"/>
<path d="M165.592 89.7211L154.287 72.8436H158.001L167.167 86.8065L176.414 72.8436H179.987L168.682 89.683V100.769H165.577L165.592 89.7211Z" fill="#6D6E70"/>
<path d="M73.0501 37.0207L67.3086 40.5992V60.8949C67.3086 60.8949 80.8788 39.6759 112.327 35.6473C112.327 35.6473 92.3841 30.8251 72.961 44.1471L73.0501 37.0207Z" fill="#6D6E70"/>
<path d="M74.6641 40.7213C76.1802 39.5636 77.8681 38.6644 79.6628 38.0585V32.046C79.6628 32.046 76.2758 34.8004 74.6641 35.9144V40.7213Z" fill="#7BA31C"/>
<path d="M82.3203 30.0011V36.9826C84.1429 35.9749 86.0963 35.2401 88.1213 34.8004V25.179C88.1213 25.179 84.6749 28.9253 82.3203 30.0011Z" fill="#7BA31C"/>
<path d="M91.2109 22.3253V33.8085C93.8385 33.002 96.5582 32.5556 99.2996 32.4808V14.4969C99.2996 14.4969 94.4271 19.8379 91.2109 22.3253Z" fill="#7BA31C"/>
<path d="M102.264 11.2924V32.046C105.474 31.8763 108.692 32.1535 111.83 32.87V0C111.83 0 106.275 7.80548 102.264 11.2924Z" fill="#7BA31C"/>
</svg>
